<svg xmlns="http://www.w3.org/2000/svg" width="276" height="169" viewBox="0 0 276 169"><path fill="#EF4323" stroke-width="2" stroke="#fff" d="M234.269 9.297c-23.255-13.732-65.088-11.996-89.871 9.684 4.144-3.209 10.192-4.782 14.822-3.922 8.335 1.549 9.686 11.849 3.855 17.208-7.354 6.763-17.396-.39-24.685-3.24-19.461-7.607-49.326-3.29-57.465 18.668 8.68-14.468 19.289-11.529 22.398-5.826 2.767 5.075.49 12.379-6.69 14.253-8.104 2.114-36.407-.584-51.165 25.02 9.716-12.211 20.529-13.735 26.133-7.962 5.572 5.739 3.392 16.159-8.062 18.152C33.911 96.49 16.784 103.731.736 115.837c36.141-20.695 56.552.832 59.394 3.477 2.842 2.646 17.055 16.312 32.613 19.412 15.559 3.102 25.005-3.502 27.975-5.246 4.34-2.549 9.725-3.822 12.119.646 1.813 3.385.298 8.588-6.732 12.291-6.342 3.344-23.637 5.844-32.014 2.538 3.589 5.731 15.558 11.181 35.306 9.5 19.748-1.679 29.963-8.86 34.184-13.163 2.919-2.972 5.627-4.009 8.229-2.447 2.16 1.299 2.395 4.549.748 6.98-1.344 1.988-8.751 9.066-21.033 8.812 3.625 3.371 19.053 11.719 44.147 9.474 30.271-2.71 78.983-28.595 79.588-89.344.299-30.015-17.205-55.426-40.991-69.47"/><path fill="#FFF" d="M138.913 47.437l-.002.003-8.87 2.11v49.556l-.001.001-5.749 1.396a.266.266 0 0 1-.263-.261V51.004l-8.368 2.01c-.133.03-.262-.033-.262-.263v-5.682a.26.26 0 0 1 .2-.255l23.051-5.537c.19-.046.284-.03.264.261v5.899zm-23.733 69.678c-2.344 4.328-6.34 7.465-10.425 8.187-.723.127-1.437.191-2.123.191-7.278 0-11.604-6.986-11.55-18.678l7.582-1.338.046-.004c.059 0 .119.02.165.061.06.047.094.12.096.195.001.117-.047 10.781 4.919 10.781.202 0 .415-.021.629-.058 1.791-.317 3.224-1.36 4.148-3.022 1.699-3.059 1.745-6.998-.319-12.139-1.618-4.027-4.076-8.248-6.679-12.72-1.904-3.265-3.872-6.641-5.616-10.136-4.442-8.885-.651-15.675 3.947-18.791 1.125-.761 3.435-2.039 6.279-2.039 3.551 0 8.359 2.025 11.004 11.718l-6.374 2.914-.11.023-.106-.023a.26.26 0 0 1-.143-.162c-2.116-6.863-4.507-6.844-5.489-6.844-.425 0-.835.118-1.22.354-2.07 1.261-3.408 4.217-.018 10.546.966 1.804 2.381 4.317 3.881 6.976 2.941 5.216 6.274 11.127 7.463 13.914 3.097 7.26 3.101 14.395.013 20.094m25.875-65.423c3.054-1.424 6.035 1.567 4.604 4.616a2.982 2.982 0 0 1-1.411 1.415c-3.062 1.451-6.067-1.563-4.611-4.623a2.978 2.978 0 0 1 1.418-1.408m-1.164 45.021a.257.257 0 0 1-.163-.055.265.265 0 0 1-.1-.206V62.737l.001-.002 5.7-1.377.061-.008a.265.265 0 0 1 .264.261v33.708l-5.699 1.389-.064.005zm21.197 42.156c-1.858 2.147-4.345 3.235-7.386 3.235-.123 0-.248-.004-.377-.006-2.186-.062-4.312-1.131-6.15-3.088-3.898-4.145-6.246-12.002-5.982-20.019.371-11.276 6.133-20.519 13.116-21.037.22-.017.438-.021.647-.021 4.848 0 7.854 4.115 8.939 12.232l.045.333a.243.243 0 0 1-.195.272l-5.149 1.01-.047.005a.251.251 0 0 1-.142-.047.24.24 0 0 1-.103-.166l-.052-.375c-.637-4.69-1.756-6.78-3.625-6.78a3.52 3.52 0 0 0-.729.081c-2.936.62-6.207 5.968-6.49 14.644-.133 3.994.541 7.932 1.896 11.084 1.22 2.845 2.813 4.584 4.265 4.654.084.002.17.006.254.006 1.197 0 2.148-.405 2.906-1.233 2.143-2.341 2.15-7.401 1.938-10.397l-6.408 1.312-.05.007a.268.268 0 0 1-.145-.049.242.242 0 0 1-.101-.175l-.491-5.293 12.742-2.612.051-.005c.051 0 .1.016.141.045a.246.246 0 0 1 .103.165l.054.378c.364 2.559 1.912 15.632-3.475 21.84m2.982-47.529c-4.107 0-11.316-3.615-11.316-23.913 0-18.328 5.226-26.15 10.92-26.15.231 0 .434.01.669.01 4.015 0 8.544 4.019 9.622 12.998l.025.217a.245.245 0 0 1-.192.272l-5.313 1.124-.051.007a.25.25 0 0 1-.145-.047.258.258 0 0 1-.102-.174l-.027-.263c-.738-6.774-2.573-7.642-4.09-7.642-2.992 0-5.056 6.097-5.056 19.648 0 11.498 1.869 17.327 5.056 17.327 1.957 0 3.391-1.278 4.039-7.511l.017-.167a.245.245 0 0 1 .188-.214l5.527-1.329.057-.006h.008c.138 0 .246.11.246.246l-.006.053-.039.318c-1.592 13.222-6.973 15.196-10.037 15.196m13.461 42.055c0 .002-.002.002-.002.002l-5.42 1.279-.061.008a.286.286 0 0 1-.164-.055.27.27 0 0 1-.098-.209V96.311c0-.002 0-.004.002-.004l5.416-1.313.062-.009c.059 0 .116.02.162.059a.254.254 0 0 1 .102.203v38.148h.001zm2.963-46.52a.264.264 0 0 1-.262-.264V21.015c0-.001 0-.002.002-.002l6.064-1.429c.26-.071.26.101.262.261v37.107l8.164-14.105.006-.004 7.272-1.74c.212-.043.399.05.228.393l-14.187 24.601 15.006 14.9c.065.07.089.164.063.256a.265.265 0 0 1-.191.18l-6.284 1.511-.06.006a.26.26 0 0 1-.186-.076l-9.832-9.002v11.529l-.002.002-6.003 1.465-.06.007zm50.439 43.381l-.002.004-5.591 1.334-.056.006a.248.248 0 0 1-.164-.06.255.255 0 0 1-.098-.202V93.012c0-1.655-.598-2.459-1.824-2.459-2.2 0-6.682 4.597-7.308 5.067v38.099a.26.26 0 0 1-.211.258l-5.479 1.285-.051.008a.25.25 0 0 1-.164-.061.263.263 0 0 1-.098-.203V87.295a.27.27 0 0 1 .213-.259l5.479-1.336.051-.004c.061 0 .119.019.166.06a.257.257 0 0 1 .096.2v2.742c.235-.123 5.989-5.5 9.487-5.5 2.534 0 5.554 1.043 5.554 6.006v41.052zm25.691-51.412l-8.753 2.085v38.612l-.002.001-6.121 1.469-.062.008a.264.264 0 0 1-.261-.262V82.454l-6.144 1.6-.066.009a.287.287 0 0 1-.161-.055.27.27 0 0 1-.101-.208v-5.155c0-.121.084-.225.199-.255l21.149-5.133.062-.009a.26.26 0 0 1 .162.057c.062.051.1.125.1.206v5.331l-.001.002m-1.257-10.52c-.117-.113-12.106-12.223-15.709-15.762 7.209-3.895 9.82-10.663 8.664-15.407-1.023-4.196-4.733-6.7-9.924-6.7-1.531 0-3.197.214-4.951.63l-5.054 1.239-.001.002v42.597a.26.26 0 0 0 .1.203.248.248 0 0 0 .162.057l.062-.006 5.28-1.271a.258.258 0 0 0 .199-.255V54.22l15.727 15.704a.268.268 0 0 0 .184.072l.062-.006 5.082-1.223a.261.261 0 0 0 .117-.443zm-21.17-32.207c1.444-.496 2.777-.747 3.961-.749 2.812 0 4.66 1.424 4.941 3.808.405 3.421-2.58 7.872-8.902 9.515V36.117zm-40.42 55.117a.264.264 0 0 0-.252-.192l-.063.008-5.162 1.248a.257.257 0 0 0-.196.221l-6.285 52.664a.266.266 0 0 0 .086.229.265.265 0 0 0 .176.064l.061-.006 6.111-1.469.001-.002 1.292-10.974 8.876-2.136 6.479 24.666a.259.259 0 0 0 .254.195l.055-.004 5.66-1.205a.272.272 0 0 0 .17-.121.258.258 0 0 0 .025-.203l-17.288-62.983zm-3.631 36.266l2.322-19.426 4.646 17.751-6.968 1.675zm33.561-63.396l-.07.006-5.324 1.133c-.123.028-.213.119-.228.229l-.021.179c-.58 4.956-2.043 7.468-4.349 7.468-1.832 0-4.263-1.354-4.263-13.069 0-.395.002-.775.006-1.148l14.318-2.914c.328-.008.217-.495.217-.495-1.1-14.817-7.555-16.418-10.279-16.418-3.913 0-10.477 2.725-10.475 20.975 0 17.527 8.017 18.887 10.477 18.887 6.009 0 9.459-4.778 10.255-14.205l.03-.348a.258.258 0 0 0-.104-.219.33.33 0 0 0-.19-.061zm-9.854-19.233c2.215 0 3.605 2.495 4.244 7.62l-8.359 1.569c.453-7.642 1.914-9.189 4.115-9.189z"/></svg>